<?xml version="1.0" encoding="UTF-8"?>
<!-- Created with Inkscape (http://www.inkscape.org/) -->
<svg width="37.692mm" height="46.302mm" version="1.1" viewBox="0 0 37.692 46.302" xmlns="http://www.w3.org/2000/svg" xmlns:xlink="http://www.w3.org/1999/xlink">
 <defs>
  <linearGradient id="linearGradient3237" x1="-179.04" x2="-179.04" y1="79.947" y2="80.719" gradientTransform="matrix(5.7258 0 0 5.7258 1047.3 -434.58)" gradientUnits="userSpaceOnUse" xlink:href="#linearGradient3213-9"/>
  <linearGradient id="linearGradient3213-9">
   <stop stop-color="#22577a" offset="0"/>
   <stop stop-color="#80ed99" offset="1"/>
  </linearGradient>
  <linearGradient id="linearGradient3239" x1="-179.04" x2="-179.04" y1="79.947" y2="80.719" gradientTransform="matrix(7.1568 0 0 7.1568 1315.4 -549.54)" gradientUnits="userSpaceOnUse" xlink:href="#linearGradient3213-9"/>
  <linearGradient id="linearGradient3241" x1="-179.04" x2="-179.04" y1="79.947" y2="80.719" gradientTransform="matrix(4.2938 0 0 4.2938 781.45 -319.54)" gradientUnits="userSpaceOnUse" xlink:href="#linearGradient3213-9"/>
 </defs>
 <g transform="translate(-6.5539 -2.249)">
  <path d="m22.183 6.8779c-4.5154 4.16e-5 -8.176 3.6606-8.176 8.176 0 3.2866 1.9385 6.1187 4.735 7.4174a3.2488 3.2488 0 0 1 1.8322 2.9257 3.2488 3.2488 0 0 1-1.8322 2.9229v9e-3c-2.7964 1.2987-4.735 4.1309-4.735 7.4174 0 4.5154 3.6606 8.176 8.176 8.176 4.5154 4.1e-5 8.176-3.6606 8.176-8.176 0-3.2773-1.9281-6.1051-4.7121-7.4088v-0.0055a3.2488 3.2488 0 0 1-0.01731-9e-3 3.2488 3.2488 0 0 1-0.21472-0.11453 3.2488 3.2488 0 0 1-0.20613-0.12886 3.2488 3.2488 0 0 1-0.19755-0.14312 3.2488 3.2488 0 0 1-0.18321-0.15746 3.2488 3.2488 0 0 1-0.17179-0.17463 3.2488 3.2488 0 0 1-0.15746-0.18321 3.2488 3.2488 0 0 1-0.14596-0.19464 3.2488 3.2488 0 0 1-0.12879-0.20613 3.2488 3.2488 0 0 1-0.11169-0.21472 3.2488 3.2488 0 0 1-0.09735-0.2233 3.2488 3.2488 0 0 1-0.08018-0.22898 3.2488 3.2488 0 0 1-0.06301-0.2348 3.2488 3.2488 0 0 1-0.0457-0.23757 3.2488 3.2488 0 0 1-0.02908-0.24332 3.2488 3.2488 0 0 1-0.0083-0.24048 3.2488 3.2488 0 0 1 0.0083-0.24338 3.2488 3.2488 0 0 1 0.02908-0.24332 3.2488 3.2488 0 0 1 0.0457-0.23757 3.2488 3.2488 0 0 1 0.06301-0.23473 3.2488 3.2488 0 0 1 0.08018-0.22898 3.2488 3.2488 0 0 1 0.09735-0.2233 3.2488 3.2488 0 0 1 0.11169-0.21472 3.2488 3.2488 0 0 1 0.12879-0.20613 3.2488 3.2488 0 0 1 0.14596-0.19464 3.2488 3.2488 0 0 1 0.15746-0.18321 3.2488 3.2488 0 0 1 0.17179-0.17172 3.2488 3.2488 0 0 1 0.18321-0.1603 3.2488 3.2488 0 0 1 0.19755-0.14312 3.2488 3.2488 0 0 1 0.20613-0.12886 3.2488 3.2488 0 0 1 0.21472-0.11453 3.2488 3.2488 0 0 1 0.01731-9e-3c2.7839-1.3037 4.7121-4.1287 4.7121-7.4059 0-4.5154-3.6606-8.176-8.176-8.176z" color="#000000" fill="url(#linearGradient3237)" opacity=".72" stroke-width="4.9394" style="-inkscape-stroke:none"/>
  <path d="m34.027 2.2491c-5.6438 5.54e-5 -10.219 4.5755-10.219 10.219 0 4.108 2.423 7.6479 5.9183 9.271a4.0607 4.0607 0 0 1 2.29 3.6569 4.0607 4.0607 0 0 1-2.29 3.6533v0.01108c-3.4952 1.6233-5.9183 5.1632-5.9183 9.271 0 5.6438 4.5755 10.219 10.219 10.219 5.6439 5.5e-5 10.219-4.5755 10.219-10.219 0-4.0964-2.41-7.6308-5.8897-9.2603v-0.0069a4.0607 4.0607 0 0 1-0.02146-0.01108 4.0607 4.0607 0 0 1-0.26838-0.14312 4.0607 4.0607 0 0 1-0.25765-0.16106 4.0607 4.0607 0 0 1-0.24692-0.17892 4.0607 4.0607 0 0 1-0.22898-0.19678 4.0607 4.0607 0 0 1-0.21472-0.21825 4.0607 4.0607 0 0 1-0.19679-0.22898 4.0607 4.0607 0 0 1-0.18245-0.24332 4.0607 4.0607 0 0 1-0.16099-0.25765 4.0607 4.0607 0 0 1-0.13959-0.26838 4.0607 4.0607 0 0 1-0.12166-0.27911 4.0607 4.0607 0 0 1-0.10019-0.28625 4.0607 4.0607 0 0 1-0.07873-0.29345 4.0607 4.0607 0 0 1-0.05747-0.29698 4.0607 4.0607 0 0 1-0.03601-0.30411 4.0607 4.0607 0 0 1-0.01039-0.30058 4.0607 4.0607 0 0 1 0.01039-0.30418 4.0607 4.0607 0 0 1 0.03601-0.30411 4.0607 4.0607 0 0 1 0.05747-0.29698 4.0607 4.0607 0 0 1 0.07873-0.29338 4.0607 4.0607 0 0 1 0.10019-0.28625 4.0607 4.0607 0 0 1 0.12166-0.27911 4.0607 4.0607 0 0 1 0.13959-0.26838 4.0607 4.0607 0 0 1 0.16099-0.25765 4.0607 4.0607 0 0 1 0.18245-0.24332 4.0607 4.0607 0 0 1 0.19679-0.22898 4.0607 4.0607 0 0 1 0.21472-0.21465 4.0607 4.0607 0 0 1 0.22898-0.20039 4.0607 4.0607 0 0 1 0.24692-0.17892 4.0607 4.0607 0 0 1 0.25765-0.16106 4.0607 4.0607 0 0 1 0.26838-0.14312 4.0607 4.0607 0 0 1 0.02146-0.01108c3.4796-1.6295 5.8897-5.1604 5.8897-9.2567 0-5.6438-4.5754-10.219-10.219-10.219z" color="#000000" fill="url(#linearGradient3239)" stroke-width="6.1738" style="-inkscape-stroke:none"/>
  <path d="m12.687 11.51c-3.3861 3.5e-5 -6.133 2.7469-6.133 6.133 0 2.4646 1.456 4.5866 3.5531 5.5605a2.4363 2.4363 0 0 1 1.374 2.1934 2.4363 2.4363 0 0 1-1.374 2.1934v0.0069c-2.097 0.97392-3.5531 3.0959-3.5531 5.5605 0 3.3861 2.7469 6.133 6.133 6.133 0.692 2.1e-5 1.3547-0.11785 1.9752-0.32918-0.42238-0.98677-0.65482-2.0755-0.65482-3.2168 0-2.7019 1.3114-5.0921 3.3313-6.5803-0.56314-0.65524-1.2624-1.1895-2.0539-1.5601v-0.0069a2.4363 2.4363 0 0 1-0.01454-0.0036 2.4363 2.4363 0 0 1-0.16099-0.08586 2.4363 2.4363 0 0 1-0.15386-0.09659 2.4363 2.4363 0 0 1-0.14672-0.10732 2.4363 2.4363 0 0 1-0.13952-0.11806 2.4363 2.4363 0 0 1-0.12886-0.13239 2.4363 2.4363 0 0 1-0.11806-0.13599 2.4363 2.4363 0 0 1-0.10732-0.14672 2.4363 2.4363 0 0 1-0.09666-0.15386 2.4363 2.4363 0 0 1-0.08586-0.16099 2.4363 2.4363 0 0 1-0.0716-0.16819 2.4363 2.4363 0 0 1-0.06093-0.17172 2.4363 2.4363 0 0 1-0.04639-0.17532 2.4363 2.4363 0 0 1-0.03601-0.17892 2.4363 2.4363 0 0 1-0.02146-0.18245 2.4363 2.4363 0 0 1-0.0036-0.18252 2.4363 2.4363 0 0 1 0.0036-0.18252 2.4363 2.4363 0 0 1 0.02146-0.18252 2.4363 2.4363 0 0 1 0.03601-0.17532 2.4363 2.4363 0 0 1 0.04639-0.17892 2.4363 2.4363 0 0 1 0.06093-0.17172 2.4363 2.4363 0 0 1 0.0716-0.16459 2.4363 2.4363 0 0 1 0.08586-0.16099 2.4363 2.4363 0 0 1 0.09666-0.15746 2.4363 2.4363 0 0 1 0.10732-0.14312 2.4363 2.4363 0 0 1 0.11806-0.13952 2.4363 2.4363 0 0 1 0.12886-0.12879 2.4363 2.4363 0 0 1 0.13952-0.11806 2.4363 2.4363 0 0 1 0.14672-0.10732 2.4363 2.4363 0 0 1 0.15386-0.09659 2.4363 2.4363 0 0 1 0.16099-0.08586 2.4363 2.4363 0 0 1 0.01454-0.0069c0.79141-0.37065 1.4907-0.90526 2.0539-1.5601-2.0199-1.4881-3.3313-3.8783-3.3313-6.5803 0-1.1413 0.23238-2.23 0.65482-3.2168-0.62048-0.21133-1.2832-0.32918-1.9752-0.32918z" color="#000000" fill="url(#linearGradient3241)" opacity=".38" stroke-width="3.7041" style="-inkscape-stroke:none"/>
 </g>
</svg>
