<?xml version="1.0" encoding="UTF-8"?>
<!-- Created with Inkscape (http://www.inkscape.org/) -->
<svg width="37.692mm" height="23.151mm" version="1.1" viewBox="0 0 37.692 23.151" xmlns="http://www.w3.org/2000/svg">
 <g transform="translate(-66.146 -91.017)" fill="#fff" stroke-linecap="square" stroke-width="1.218">
  <path d="m72.279 100.28c-3.3861 4e-5 -6.133 2.7468-6.133 6.133 0 2.4646 1.4562 4.5871 3.5533 5.5609a2.4363 2.4363 0 0 1 1.3741 2.1932 2.4363 2.4363 0 0 1 0 4e-3h2.4107a2.4363 2.4363 0 0 1 0-4e-3 2.4363 2.4363 0 0 1 4e-3 -0.18242 2.4363 2.4363 0 0 1 0.0212-0.18241 2.4363 2.4363 0 0 1 0.0362-0.17519 2.4363 2.4363 0 0 1 0.0465-0.17931 2.4363 2.4363 0 0 1 0.061-0.17157 2.4363 2.4363 0 0 1 0.0713-0.16433 2.4363 2.4363 0 0 1 0.0863-0.16123 2.4363 2.4363 0 0 1 0.0966-0.15762 2.4363 2.4363 0 0 1 0.10697-0.14314 2.4363 2.4363 0 0 1 0.11834-0.13953 2.4363 2.4363 0 0 1 0.12867-0.12867 2.4363 2.4363 0 0 1 0.13953-0.11782 2.4363 2.4363 0 0 1 0.14676-0.10749 2.4363 2.4363 0 0 1 0.154-0.0966 2.4363 2.4363 0 0 1 0.16071-0.0858 2.4363 2.4363 0 0 1 0.0145-7e-3c0.79141-0.37065 1.491-0.90528 2.0541-1.5601-2.0199-1.4881-3.3316-3.8786-3.3316-6.5805 0-1.1413 0.23282-2.2301 0.65526-3.2168-0.62047-0.21133-1.2836-0.32918-1.9756-0.32918z" fill-opacity=".59856" style="paint-order:fill markers stroke"/>
  <path d="m81.775 95.645c-4.5154 4.2e-5 -8.1762 3.6609-8.1762 8.1762 0 3.2866 1.9386 6.119 4.7351 7.4176a3.2488 3.2488 0 0 1 1.8319 2.9254 3.2488 3.2488 0 0 1-5.1e-4 3e-3h3.2153a3.2488 3.2488 0 0 1 0-3e-3 3.2488 3.2488 0 0 1 8e-3 -0.2434 3.2488 3.2488 0 0 1 0.0289-0.24339 3.2488 3.2488 0 0 1 0.046-0.23772 3.2488 3.2488 0 0 1 0.0631-0.23461 3.2488 3.2488 0 0 1 0.0801-0.22892 3.2488 3.2488 0 0 1 0.0972-0.22325 3.2488 3.2488 0 0 1 0.11162-0.21497 3.2488 3.2488 0 0 1 0.12919-0.20619 3.2488 3.2488 0 0 1 0.14573-0.1943 3.2488 3.2488 0 0 1 0.15761-0.18345 3.2488 3.2488 0 0 1 0.17157-0.17157 3.2488 3.2488 0 0 1 0.18345-0.1602 3.2488 3.2488 0 0 1 0.1974-0.14314 3.2488 3.2488 0 0 1 0.20619-0.12919 3.2488 3.2488 0 0 1 0.21446-0.11421 3.2488 3.2488 0 0 1 0.0176-9e-3c2.7839-1.3037 4.7119-4.1285 4.7119-7.4058 0-4.5154-3.6603-8.1762-8.1757-8.1762z" fill-opacity=".84375" style="paint-order:fill markers stroke"/>
  <path d="m93.619 91.017c-5.6438 5.6e-5 -10.22 4.5757-10.22 10.22 0 4.1079 2.4232 7.6476 5.9185 9.2708a4.0607 4.0607 0 0 1 2.2903 3.6571 4.0607 4.0607 0 0 1-5.2e-4 4e-3h4.0184a4.0607 4.0607 0 0 1 0-4e-3 4.0607 4.0607 0 0 1 0.0103-0.30386 4.0607 4.0607 0 0 1 0.0362-0.30437 4.0607 4.0607 0 0 1 0.0574-0.29714 4.0607 4.0607 0 0 1 0.0785-0.29301 4.0607 4.0607 0 0 1 0.10025-0.28628 4.0607 4.0607 0 0 1 0.12195-0.27906 4.0607 4.0607 0 0 1 0.13953-0.26871 4.0607 4.0607 0 0 1 0.16071-0.25735 4.0607 4.0607 0 0 1 0.18242-0.2434 4.0607 4.0607 0 0 1 0.19689-0.22893 4.0607 4.0607 0 0 1 0.21497-0.21497 4.0607 4.0607 0 0 1 0.22893-0.19999 4.0607 4.0607 0 0 1 0.24701-0.17931 4.0607 4.0607 0 0 1 0.25735-0.16072 4.0607 4.0607 0 0 1 0.26872-0.14314 4.0607 4.0607 0 0 1 0.0212-0.0114c3.4796-1.6295 5.8896-5.16 5.8896-9.2563 0-5.6438-4.5751-10.22-10.219-10.22z" style="paint-order:fill markers stroke"/>
 </g>
</svg>
