<?xml version="1.0" encoding="UTF-8"?>
<!-- Created with Inkscape (http://www.inkscape.org/) -->
<svg width="32.432mm" height="7.689mm" version="1.1" viewBox="0 0 32.432 7.689" xmlns="http://www.w3.org/2000/svg" xmlns:xlink="http://www.w3.org/1999/xlink">
 <defs>
  <linearGradient id="linearGradient24900" x1="-179.04" x2="-179.04" y1="79.947" y2="80.719" gradientTransform="matrix(.82693 0 0 .82693 169.82 -229.79)" gradientUnits="userSpaceOnUse" xlink:href="#linearGradient20935"/>
  <linearGradient id="linearGradient20935">
   <stop stop-color="#fff" offset="0"/>
   <stop stop-color="#80ed99" offset="1"/>
  </linearGradient>
  <linearGradient id="linearGradient24902" x1="-179.04" x2="-179.04" y1="79.947" y2="80.719" gradientTransform="matrix(1.0336 0 0 1.0336 208.53 -246.4)" gradientUnits="userSpaceOnUse" xlink:href="#linearGradient20935"/>
  <linearGradient id="linearGradient24904" x1="-179.04" x2="-179.04" y1="79.947" y2="80.719" gradientTransform="matrix(.62012 0 0 .62012 131.42 -213.18)" gradientUnits="userSpaceOnUse" xlink:href="#linearGradient20935"/>
 </defs>
 <g transform="matrix(1 0 0 1 7.4804 166.71)">
  <g fill="#fff" stroke-width=".19572">
   <path d="m-7.4802-160.88q0.11467-1.1506 0.18347-2.5611 0.0688-1.4144 0.08027-2.6567 0.3899 8e-3 0.64984 8e-3 0.17585 0 0.56192-8e-3 -0.0497 0.68806-0.09175 1.5672l-0.07643 1.5328q-0.0344 0.65748-0.0497 1.3073l0.65748 8e-3q0.92506 0 1.2156-4e-3 0.29052-8e-3 0.57339-0.023-0.0344 0.37461-0.061149 0.8295-1.0053-8e-3 -1.7202-8e-3l-1.2041 4e-3z"/>
   <path d="m-3.7952-159.12q-0.068799-0.57338-0.11085-0.82567 0.36697 0.17202 0.69188 0.17202 0.099374 0 0.2026-0.0268 0.1032-0.023 0.19112-0.0688 0.057349-0.0306 0.11467-0.0879 0.061149-0.0574 0.16437-0.21025 0.1032-0.15289 0.17967-0.30198 0.061149-0.12615 0.12615-0.31727l-0.79511-2.328-0.58103-1.6513q0.40137 8e-3 0.57721 8e-3 0.2026 0 0.53134-8e-3 0.080274 0.31727 0.14907 0.55044l0.36314 1.2003q0.1682 0.55427 0.24082 0.83332 0.045875 0.18347 0.10702 0.48547 0.11467-0.34786 0.19877-0.56574 0.14907-0.39755 0.41666-1.0627l0.37079-0.91359q0.099374-0.24465 0.2026-0.52751 0.34403 8e-3 0.52369 8e-3 0.16437 0 0.55045-8e-3l-1.4717 3.2989-0.63837 1.4564q-0.1338 0.28287-0.25611 0.43959-0.099374 0.1338-0.21787 0.22935-0.11467 0.0917-0.24465 0.1529-0.16437 0.0764-0.3555 0.12232-0.21787 0.0459-0.4396 0.0459-0.12615 0-0.35168-0.023-0.22552-0.023-0.4396-0.0765z"/>
   <path d="m4.8552-160.88q-0.31727-8e-3 -0.49311-8e-3 -0.19112 0-0.52752 8e-3l0.0344-0.66513q-0.1682 0.2179-0.29052 0.33639-0.1185 0.1185-0.29816 0.2217-0.17585 0.0994-0.38226 0.14907-0.20642 0.0497-0.42813 0.0497-0.36697 0-0.68806-0.1338t-0.54663-0.37461q-0.22552-0.24465-0.33256-0.5772-0.10702-0.33639-0.10702-0.69953 0-0.50076 0.19112-0.97476 0.19112-0.47782 0.52369-0.77216 0.33256-0.29433 0.75305-0.41666 0.42048-0.12232 0.90212-0.12232 0.34785 0 0.78745 0.065 0.02675-0.49694 0.02675-1.0436v-0.25994q0.35932 8e-3 0.55045 8e-3 0.24847 0 0.55809-8e-3 -0.0841 0.97093-0.16055 2.6452-0.07262 1.6705-0.07262 2.5726zm-0.94418-3.188q-0.28669-0.0764-0.55045-0.0764-0.30198 0-0.57721 0.0841-0.27522 0.0841-0.48929 0.28669-0.21025 0.2026-0.32492 0.51987-0.11467 0.31728-0.11467 0.61161 0 0.29434 0.1032 0.53899 0.10702 0.24464 0.32874 0.38607 0.2217 0.14145 0.50075 0.14145 0.21025 0 0.38226-0.0726 0.17202-0.0764 0.31345-0.22934 0.14142-0.15673 0.237-0.40138 0.0994-0.24464 0.14142-0.64983 0.02675-0.29816 0.0497-1.1391z"/>
   <path d="m6.0058-165.43q0.01525-0.39373 0.01525-0.60397v-0.12232q0.34785 8e-3 0.56574 8e-3 0.29816 0 0.55427-8e-3 -0.0115 0.0956-0.01525 0.21789l-0.019 0.50841q-0.29052-8e-3 -0.53516-8e-3 -0.24465 0-0.56574 8e-3zm-0.20642 4.5527q0.05735-0.57338 0.08027-0.95946 0.03822-0.61161 0.06497-1.4105 0.03058-0.79892 0.04205-1.5176 0.37461 8e-3 0.56192 8e-3 0.17202 0 0.5581-8e-3 -0.05352 0.66513-0.08792 1.2691-0.03057 0.60397-0.04587 1.3838-0.01525 0.77981-0.01525 1.2347-0.34785-8e-3 -0.55809-8e-3 -0.19877 0-0.60014 8e-3z"/>
   <path d="m8.1809-163.92q0.05352-0.27523 0.06497-0.38609 0.01525-0.11084 0.0497-0.33638 0.51987-0.12232 0.91742-0.17202 0.39755-0.0497 0.76833-0.0497 0.42048 0 0.77216 0.0994 0.35168 0.0956 0.55045 0.30963 0.19877 0.21407 0.19877 0.61543 0 0.2179-0.06117 1.1124-0.06115 0.89066-0.07262 1.8425-0.29052-8e-3 -0.53516-8e-3 -0.23317 0-0.54663 8e-3 0.0497-0.46253 0.08027-1.0703l0.0497-0.95182q-0.14526 0.0956-0.2217 0.1338-0.07645 0.0382-0.17202 0.0726-0.09557 0.0306-0.33639 0.0994-0.24082 0.065-0.38608 0.11468-0.14525 0.0497-0.26376 0.11467-0.11467 0.0612-0.19495 0.14145-0.08027 0.0765-0.1185 0.16437-0.0344 0.0841-0.0344 0.1835 0 0.16055 0.09175 0.27905 0.09557 0.11467 0.237 0.16054 0.14142 0.0459 0.33256 0.0459 0.12232 0 0.25611-0.019 0.13762-0.019 0.36697-0.0956-0.08027 0.21788-0.1873 0.64984-0.2714 0.0459-0.43195 0.0573-0.16055 0.0115-0.29816 0.0115-0.48164 0-0.79127-0.12997-0.30963-0.12998-0.45871-0.41284-0.14525-0.28287-0.14525-0.56956 0-0.16438 0.05735-0.32492 0.05735-0.16055 0.1682-0.29434 0.11085-0.1338 0.28669-0.25611 0.17585-0.12615 0.5084-0.24082 0.33256-0.1185 0.87919-0.237 0.14525-0.0306 0.30198-0.0726 0.15672-0.0459 0.24847-0.0879 0.09557-0.0421 0.16437-0.10702 0.0688-0.0688 0.09937-0.14143 0.0344-0.0726 0.0344-0.14907 0-0.14907-0.09937-0.25229-0.09557-0.1032-0.25229-0.14145-0.1529-0.042-0.34021-0.042-0.6957 0-1.5367 0.33256z"/>
   <path d="m12.226-160.88c0.07645-0.75941 0.1338-1.6322 0.17202-2.6185 0.03822-0.98622 0.05732-1.8527 0.05732-2.5993 0.30581 5e-3 0.56192 8e-3 0.76834 8e-3 0.2217 0 0.43832-4e-3 0.64984-0.0115 0.21407-8e-3 0.4396-0.0115 0.6766-0.0115 0.29561 0 0.55937 0.0165 0.79127 0.0497 0.23445 0.0331 0.44214 0.10957 0.62308 0.22935 0.18095 0.11977 0.31472 0.26502 0.40137 0.43577 0.0892 0.17075 0.1338 0.36952 0.1338 0.59632 0 0.14272-0.0165 0.27905-0.0497 0.40901-0.03312 0.12743-0.08282 0.24848-0.14907 0.36315-0.06372 0.11212-0.14017 0.21152-0.22935 0.29816-0.0892 0.0841-0.1784 0.15162-0.26758 0.2026-0.08665 0.0484-0.18605 0.0905-0.29816 0.12615-0.11212 0.0357-0.26249 0.079-0.45106 0.12997l0.25993 0.50458c0.0841 0.16055 0.24337 0.44851 0.47782 0.8639l1.3649 2.5404c0.0205 0.0357 0.08155 0.15162 0.18347 0.34785-0.3109-5e-3 -0.51604-8e-3 -0.61543-8e-3 -0.12232 0-0.33765 2e-3 -0.64601 8e-3l-1.4031-2.8806c-0.0739-0.15545-0.1631-0.33893-0.26758-0.55045l-0.46253-0.92888c-0.04587-0.0867-0.10957-0.21662-0.19112-0.3899 0.17075 0.0306 0.32619 0.0459 0.46635 0.0459 0.21917 0 0.41921-0.0357 0.60014-0.10703 0.18092-0.0713 0.31982-0.18092 0.41666-0.32874 0.09682-0.15035 0.14525-0.31344 0.14525-0.48929 0-0.10702-0.02175-0.20642-0.06497-0.29816-0.04078-0.0917-0.11087-0.16945-0.21025-0.23317-0.09937-0.0637-0.21787-0.1045-0.3555-0.12232-0.13762-0.0178-0.27523-0.0268-0.41284-0.0268-0.07645 0-0.18092 1e-3 -0.31345 4e-3 -0.13252 2e-3 -0.29561 4e-3 -0.48929 4e-3l-0.0688 1.5711-0.07262 2.8669-0.5925-8e-3c-0.09427 0-0.28668 2e-3 -0.57721 8e-3z"/>
   <path d="m13.725-159.02c0.50203-0.66258 1.0014-1.3519 1.5187-2.068l0.64442-0.72222 0.84096-1.2729c0.18095 5e-3 0.37461 8e-3 0.58103 8e-3 0.19367 0 0.39372-2e-3 0.60014-8e-3l-0.59632 0.78362c-0.13507 0.18095-0.57211 0.77344-0.75687 1.0244-0.18476 0.25102-0.57038 0.68145-0.62262 0.76427-0.05224 0.0828-0.24465 0.37589-0.42048 0.63072-0.1733 0.25484-0.3606 0.54153-0.56192 0.86008-0.21407-5e-3 -0.40774-8e-3 -0.58103-8e-3 -0.19367 0-0.40901 2e-3 -0.64601 8e-3z"/>
  </g>
  <path d="m21.765-166.04c-0.65212 0-1.1808 0.52867-1.1808 1.1808 0 0.47465 0.27996 0.88368 0.68383 1.0712a0.4692 0.4692 0 0 1 0.2646 0.42254 0.4692 0.4692 0 0 1-0.2646 0.42212v1e-3c-0.40386 0.18756-0.68383 0.59658-0.68383 1.0712 0 0.65212 0.52867 1.1808 1.1808 1.1808 0.65213 1e-5 1.1808-0.52867 1.1808-1.1808 0-0.47332-0.27846-0.8817-0.68052-1.07v-8e-4a0.4692 0.4692 0 0 1-0.0025-1e-3 0.4692 0.4692 0 0 1-0.03101-0.0165 0.4692 0.4692 0 0 1-0.02977-0.0186 0.4692 0.4692 0 0 1-0.02853-0.0207 0.4692 0.4692 0 0 1-0.02646-0.0227 0.4692 0.4692 0 0 1-0.02481-0.0252 0.4692 0.4692 0 0 1-0.02274-0.0265 0.4692 0.4692 0 0 1-0.02108-0.0281 0.4692 0.4692 0 0 1-0.0186-0.0298 0.4692 0.4692 0 0 1-0.01613-0.031 0.4692 0.4692 0 0 1-0.01406-0.0323 0.4692 0.4692 0 0 1-0.01158-0.0331 0.4692 0.4692 0 0 1-0.0091-0.0339 0.4692 0.4692 0 0 1-0.0066-0.0343 0.4692 0.4692 0 0 1-0.0042-0.0351 0.4692 0.4692 0 0 1-0.0012-0.0347 0.4692 0.4692 0 0 1 0.0012-0.0352 0.4692 0.4692 0 0 1 0.0042-0.0351 0.4692 0.4692 0 0 1 0.0066-0.0343 0.4692 0.4692 0 0 1 0.0091-0.0339 0.4692 0.4692 0 0 1 0.01158-0.0331 0.4692 0.4692 0 0 1 0.01406-0.0323 0.4692 0.4692 0 0 1 0.01613-0.031 0.4692 0.4692 0 0 1 0.0186-0.0298 0.4692 0.4692 0 0 1 0.02108-0.0281 0.4692 0.4692 0 0 1 0.02274-0.0265 0.4692 0.4692 0 0 1 0.02481-0.0248 0.4692 0.4692 0 0 1 0.02646-0.0232 0.4692 0.4692 0 0 1 0.02853-0.0207 0.4692 0.4692 0 0 1 0.02977-0.0186 0.4692 0.4692 0 0 1 0.03101-0.0165 0.4692 0.4692 0 0 1 0.0025-1e-3c0.40206-0.18828 0.68052-0.59627 0.68052-1.0696 0-0.65212-0.52866-1.1808-1.1808-1.1808z" color="#000000" fill="url(#linearGradient24900)" opacity=".72" stroke-width=".71335" style="-inkscape-stroke:none"/>
  <path d="m23.475-166.71c-0.81509 0-1.4759 0.66079-1.4759 1.4759 0 0.59327 0.34993 1.1045 0.85473 1.3389a0.58645 0.58645 0 0 1 0.33073 0.52814 0.58645 0.58645 0 0 1-0.33073 0.52761v2e-3c-0.50478 0.23444-0.85473 0.74568-0.85473 1.3389 0 0.81509 0.6608 1.4759 1.4759 1.4759 0.8151 1e-5 1.4759-0.66079 1.4759-1.4759 0-0.5916-0.34805-1.102-0.85059-1.3374v-1e-3a0.58645 0.58645 0 0 1-0.0031-2e-3 0.58645 0.58645 0 0 1-0.03876-0.0207 0.58645 0.58645 0 0 1-0.03721-0.0233 0.58645 0.58645 0 0 1-0.03566-0.0258 0.58645 0.58645 0 0 1-0.03307-0.0284 0.58645 0.58645 0 0 1-0.03101-0.0315 0.58645 0.58645 0 0 1-0.02842-0.0331 0.58645 0.58645 0 0 1-0.02635-0.0351 0.58645 0.58645 0 0 1-0.02325-0.0372 0.58645 0.58645 0 0 1-0.02016-0.0388 0.58645 0.58645 0 0 1-0.01757-0.0403 0.58645 0.58645 0 0 1-0.01447-0.0413 0.58645 0.58645 0 0 1-0.01137-0.0424 0.58645 0.58645 0 0 1-0.0083-0.0429 0.58645 0.58645 0 0 1-0.0052-0.0439 0.58645 0.58645 0 0 1-0.0015-0.0434 0.58645 0.58645 0 0 1 0.0015-0.0439 0.58645 0.58645 0 0 1 0.0052-0.0439 0.58645 0.58645 0 0 1 0.0083-0.0429 0.58645 0.58645 0 0 1 0.01137-0.0424 0.58645 0.58645 0 0 1 0.01447-0.0413 0.58645 0.58645 0 0 1 0.01757-0.0403 0.58645 0.58645 0 0 1 0.02016-0.0388 0.58645 0.58645 0 0 1 0.02325-0.0372 0.58645 0.58645 0 0 1 0.02635-0.0351 0.58645 0.58645 0 0 1 0.02842-0.0331 0.58645 0.58645 0 0 1 0.03101-0.031 0.58645 0.58645 0 0 1 0.03307-0.0289 0.58645 0.58645 0 0 1 0.03566-0.0258 0.58645 0.58645 0 0 1 0.03721-0.0233 0.58645 0.58645 0 0 1 0.03876-0.0207 0.58645 0.58645 0 0 1 0.0031-2e-3c0.50253-0.23533 0.85059-0.74527 0.85059-1.3369 0-0.81509-0.66078-1.4759-1.4759-1.4759z" color="#000000" fill="url(#linearGradient24902)" stroke-width=".89162" style="-inkscape-stroke:none"/>
  <path d="m20.393-165.37c-0.48902 1e-5 -0.88573 0.39671-0.88573 0.88574 0 0.35594 0.21028 0.66241 0.51315 0.80305a0.35185 0.35185 0 0 1 0.19844 0.31678 0.35185 0.35185 0 0 1-0.19844 0.31677v1e-3c-0.30285 0.14066-0.51315 0.44712-0.51315 0.80305 0 0.48903 0.39671 0.88574 0.88573 0.88574 0.09994 0 0.19565-0.017 0.28526-0.0475-0.061-0.14251-0.09457-0.29975-0.09457-0.46457 0-0.39022 0.18939-0.73542 0.48111-0.95034-0.08133-0.0946-0.18232-0.17178-0.29662-0.2253v-1e-3a0.35185 0.35185 0 0 1-0.0021-5.2e-4 0.35185 0.35185 0 0 1-0.02325-0.0124 0.35185 0.35185 0 0 1-0.02222-0.0139 0.35185 0.35185 0 0 1-0.02119-0.0155 0.35185 0.35185 0 0 1-0.02015-0.017 0.35185 0.35185 0 0 1-0.01861-0.0191 0.35185 0.35185 0 0 1-0.01705-0.0196 0.35185 0.35185 0 0 1-0.0155-0.0212 0.35185 0.35185 0 0 1-0.01396-0.0222 0.35185 0.35185 0 0 1-0.0124-0.0233 0.35185 0.35185 0 0 1-0.01034-0.0243 0.35185 0.35185 0 0 1-0.0088-0.0248 0.35185 0.35185 0 0 1-0.0067-0.0253 0.35185 0.35185 0 0 1-0.0052-0.0258 0.35185 0.35185 0 0 1-0.0031-0.0264 0.35185 0.35185 0 0 1-5.16e-4 -0.0264 0.35185 0.35185 0 0 1 5.16e-4 -0.0264 0.35185 0.35185 0 0 1 0.0031-0.0264 0.35185 0.35185 0 0 1 0.0052-0.0253 0.35185 0.35185 0 0 1 0.0067-0.0258 0.35185 0.35185 0 0 1 0.0088-0.0248 0.35185 0.35185 0 0 1 0.01034-0.0238 0.35185 0.35185 0 0 1 0.0124-0.0233 0.35185 0.35185 0 0 1 0.01396-0.0227 0.35185 0.35185 0 0 1 0.0155-0.0207 0.35185 0.35185 0 0 1 0.01705-0.0202 0.35185 0.35185 0 0 1 0.01861-0.0186 0.35185 0.35185 0 0 1 0.02015-0.0171 0.35185 0.35185 0 0 1 0.02119-0.0155 0.35185 0.35185 0 0 1 0.02222-0.014 0.35185 0.35185 0 0 1 0.02325-0.0124 0.35185 0.35185 0 0 1 0.0021-1e-3c0.1143-0.0535 0.21529-0.13074 0.29662-0.22531-0.29172-0.21491-0.48111-0.56011-0.48111-0.95033 0-0.16482 0.03356-0.32206 0.09457-0.46457-0.08961-0.0305-0.18532-0.0475-0.28526-0.0475z" color="#000000" fill="url(#linearGradient24904)" opacity=".38" stroke-width=".53494" style="-inkscape-stroke:none"/>
 </g>
</svg>
