<?xml version="1.0" encoding="utf-8"?>
<!-- Created with Inkscape (http://www.inkscape.org/) -->
<svg width="43.577mm" height="43.577mm" version="1.2" viewBox="0 0 43.577 43.577" xmlns:xlink="http://www.w3.org/1999/xlink" baseProfile="tiny-ps" xmlns="http://www.w3.org/2000/svg">
  <title>LydiaRx</title>
  <defs>
    <linearGradient id="linearGradient3213">
      <stop stop-color="#22577a" offset="0" />
      <stop stop-color="#80ed99" offset="1" />
    </linearGradient>
    <linearGradient id="linearGradient3237" x1="-179.04" x2="-179.04" y1="79.947" y2="80.719" gradientUnits="userSpaceOnUse" />
    <linearGradient id="linearGradient3239" x1="-179.04" x2="-179.04" y1="79.947" y2="80.719" gradientUnits="userSpaceOnUse" />
    <linearGradient id="linearGradient3241" x1="-179.04" x2="-179.04" y1="79.947" y2="80.719" gradientUnits="userSpaceOnUse" />
  </defs>
  <g transform="translate(-12.058 -61.346)">
    <g transform="matrix(4.664 0 0 4.664 -104.9 348.51)">
      <path d="m29.282-59.573c-0.65212 6e-6 -1.1808 0.52867-1.1808 1.1808 0 0.47466 0.27996 0.88368 0.68383 1.0712a0.4692 0.4692 0 0 1 0.2646 0.42254 0.4692 0.4692 0 0 1-0.2646 0.42212v0.0013c-0.40386 0.18756-0.68383 0.59658-0.68383 1.0712 0 0.65212 0.52868 1.1808 1.1808 1.1808 0.65213 6e-6 1.1808-0.52867 1.1808-1.1808 0-0.47332-0.27846-0.8817-0.68052-1.07v-8e-4a0.4692 0.4692 0 0 1-0.0025-0.0013 0.4692 0.4692 0 0 1-0.03101-0.01654 0.4692 0.4692 0 0 1-0.02977-0.01861 0.4692 0.4692 0 0 1-0.02853-0.02067 0.4692 0.4692 0 0 1-0.02646-0.02274 0.4692 0.4692 0 0 1-0.02481-0.02522 0.4692 0.4692 0 0 1-0.02274-0.02646 0.4692 0.4692 0 0 1-0.02108-0.02811 0.4692 0.4692 0 0 1-0.0186-0.02977 0.4692 0.4692 0 0 1-0.01613-0.03101 0.4692 0.4692 0 0 1-0.01406-0.03225 0.4692 0.4692 0 0 1-0.01158-0.03307 0.4692 0.4692 0 0 1-0.0091-0.03391 0.4692 0.4692 0 0 1-0.0066-0.03431 0.4692 0.4692 0 0 1-0.0042-0.03514 0.4692 0.4692 0 0 1-0.0012-0.03473 0.4692 0.4692 0 0 1 0.0012-0.03515 0.4692 0.4692 0 0 1 0.0042-0.03514 0.4692 0.4692 0 0 1 0.0066-0.03431 0.4692 0.4692 0 0 1 0.0091-0.0339 0.4692 0.4692 0 0 1 0.01158-0.03307 0.4692 0.4692 0 0 1 0.01406-0.03225 0.4692 0.4692 0 0 1 0.01613-0.03101 0.4692 0.4692 0 0 1 0.0186-0.02977 0.4692 0.4692 0 0 1 0.02108-0.02811 0.4692 0.4692 0 0 1 0.02274-0.02646 0.4692 0.4692 0 0 1 0.02481-0.0248 0.4692 0.4692 0 0 1 0.02646-0.02315 0.4692 0.4692 0 0 1 0.02853-0.02067 0.4692 0.4692 0 0 1 0.02977-0.01861 0.4692 0.4692 0 0 1 0.03101-0.01654 0.4692 0.4692 0 0 1 0.0025-0.0013c0.40206-0.18828 0.68052-0.59627 0.68052-1.0696 0-0.65212-0.52866-1.1808-1.1808-1.1808z" color="#000000" fill="url(#linearGradient3237)" stroke-width=".71335" />
      <path d="m30.993-60.242c-0.81509 8e-6 -1.4759 0.66079-1.4759 1.4759 0 0.59328 0.34993 1.1045 0.85473 1.3389a0.58645 0.58645 0 0 1 0.33073 0.52814 0.58645 0.58645 0 0 1-0.33073 0.52762v0.0016c-0.50478 0.23444-0.85473 0.74567-0.85473 1.3389 0 0.81509 0.6608 1.4759 1.4759 1.4759 0.8151 8e-6 1.4759-0.66079 1.4759-1.4759 0-0.5916-0.34805-1.102-0.85059-1.3374v-1e-3a0.58645 0.58645 0 0 1-0.0031-0.0016 0.58645 0.58645 0 0 1-0.03876-0.02067 0.58645 0.58645 0 0 1-0.03721-0.02326 0.58645 0.58645 0 0 1-0.03566-0.02584 0.58645 0.58645 0 0 1-0.03307-0.02842 0.58645 0.58645 0 0 1-0.03101-0.03152 0.58645 0.58645 0 0 1-0.02842-0.03307 0.58645 0.58645 0 0 1-0.02635-0.03514 0.58645 0.58645 0 0 1-0.02325-0.03721 0.58645 0.58645 0 0 1-0.02016-0.03876 0.58645 0.58645 0 0 1-0.01757-0.04031 0.58645 0.58645 0 0 1-0.01447-0.04134 0.58645 0.58645 0 0 1-0.01137-0.04238 0.58645 0.58645 0 0 1-0.0083-0.04289 0.58645 0.58645 0 0 1-0.0052-0.04392 0.58645 0.58645 0 0 1-0.0015-0.04341 0.58645 0.58645 0 0 1 0.0015-0.04393 0.58645 0.58645 0 0 1 0.0052-0.04392 0.58645 0.58645 0 0 1 0.0083-0.04289 0.58645 0.58645 0 0 1 0.01137-0.04237 0.58645 0.58645 0 0 1 0.01447-0.04134 0.58645 0.58645 0 0 1 0.01757-0.04031 0.58645 0.58645 0 0 1 0.02016-0.03876 0.58645 0.58645 0 0 1 0.02325-0.03721 0.58645 0.58645 0 0 1 0.02635-0.03514 0.58645 0.58645 0 0 1 0.02842-0.03307 0.58645 0.58645 0 0 1 0.03101-0.031 0.58645 0.58645 0 0 1 0.03307-0.02894 0.58645 0.58645 0 0 1 0.03566-0.02584 0.58645 0.58645 0 0 1 0.03721-0.02326 0.58645 0.58645 0 0 1 0.03876-0.02067 0.58645 0.58645 0 0 1 0.0031-0.0016c0.50253-0.23533 0.85059-0.74528 0.85059-1.3369 0-0.81509-0.66078-1.4759-1.4759-1.4759z" color="#000000" fill="url(#linearGradient3239)" stroke-width=".89162" />
      <path d="m27.911-58.904c-0.48902 5e-6 -0.88573 0.39671-0.88573 0.88574 0 0.35594 0.21028 0.66241 0.51315 0.80305a0.35185 0.35185 0 0 1 0.19844 0.31678 0.35185 0.35185 0 0 1-0.19844 0.31678v1e-3c-0.30285 0.14066-0.51315 0.44711-0.51315 0.80305 0 0.48903 0.39671 0.88573 0.88573 0.88573 0.09994 3e-6 0.19565-0.01702 0.28526-0.04754-0.061-0.14251-0.09457-0.29975-0.09457-0.46457 0-0.39021 0.18939-0.73541 0.48111-0.95033-0.08133-0.09463-0.18232-0.17178-0.29662-0.22531v-1e-3a0.35185 0.35185 0 0 1-0.0021-5.16e-4 0.35185 0.35185 0 0 1-0.02325-0.0124 0.35185 0.35185 0 0 1-0.02222-0.01395 0.35185 0.35185 0 0 1-0.02119-0.0155 0.35185 0.35185 0 0 1-0.02015-0.01705 0.35185 0.35185 0 0 1-0.01861-0.01912 0.35185 0.35185 0 0 1-0.01705-0.01964 0.35185 0.35185 0 0 1-0.0155-0.02119 0.35185 0.35185 0 0 1-0.01396-0.02222 0.35185 0.35185 0 0 1-0.0124-0.02325 0.35185 0.35185 0 0 1-0.01034-0.02429 0.35185 0.35185 0 0 1-0.0088-0.0248 0.35185 0.35185 0 0 1-0.0067-0.02532 0.35185 0.35185 0 0 1-0.0052-0.02584 0.35185 0.35185 0 0 1-0.0031-0.02635 0.35185 0.35185 0 0 1-5.16e-4 -0.02636 0.35185 0.35185 0 0 1 5.16e-4 -0.02636 0.35185 0.35185 0 0 1 0.0031-0.02636 0.35185 0.35185 0 0 1 0.0052-0.02532 0.35185 0.35185 0 0 1 0.0067-0.02584 0.35185 0.35185 0 0 1 0.0088-0.0248 0.35185 0.35185 0 0 1 0.01034-0.02377 0.35185 0.35185 0 0 1 0.0124-0.02325 0.35185 0.35185 0 0 1 0.01396-0.02274 0.35185 0.35185 0 0 1 0.0155-0.02067 0.35185 0.35185 0 0 1 0.01705-0.02015 0.35185 0.35185 0 0 1 0.01861-0.0186 0.35185 0.35185 0 0 1 0.02015-0.01705 0.35185 0.35185 0 0 1 0.02119-0.0155 0.35185 0.35185 0 0 1 0.02222-0.01395 0.35185 0.35185 0 0 1 0.02325-0.0124 0.35185 0.35185 0 0 1 0.0021-1e-3c0.1143-0.05353 0.21529-0.13074 0.29662-0.22531-0.29172-0.21491-0.48111-0.56011-0.48111-0.95033 0-0.16482 0.03356-0.32206 0.09457-0.46457-0.08961-0.03052-0.18532-0.04754-0.28526-0.04754z" color="#000000" fill="url(#linearGradient3241)" stroke-width=".53494" />
    </g>
  </g>
</svg>